<svg xmlns="http://www.w3.org/2000/svg" width="21" height="20"><g fill="#FFF" fill-rule="evenodd"><path d="M8.726 0C3.906 0 0 3.868 0 8.639c0 4.77 3.907 8.638 8.726 8.638 4.82 0 8.726-3.867 8.726-8.638S13.545 0 8.726 0m0 2.304c3.529 0 6.4 2.841 6.4 6.335 0 3.493-2.871 6.335-6.4 6.335-3.529 0-6.4-2.842-6.4-6.335 0-3.494 2.871-6.335 6.4-6.335"/><path d="M18.342 18.964l-4.001-3.998a1.143 1.143 0 0 1 0-1.629 1.171 1.171 0 0 1 1.645 0l4 3.998c.455.45.455 1.18 0 1.629a1.165 1.165 0 0 1-.822.337c-.297 0-.596-.112-.822-.337z"/></g></svg>